<svg width="18" height="20" viewBox="0 0 18 20" fill="none" xmlns="http://www.w3.org/2000/svg">
<path d="M15 13.5625C14.332 13.5625 13.7156 13.7969 13.2328 14.1883L8.37656 10.675C8.45788 10.2287 8.45788 9.77133 8.37656 9.325L13.2328 5.81172C13.7156 6.20312 14.332 6.4375 15 6.4375C16.5516 6.4375 17.8125 5.17656 17.8125 3.625C17.8125 2.07344 16.5516 0.8125 15 0.8125C13.4484 0.8125 12.1875 2.07344 12.1875 3.625C12.1875 3.89687 12.225 4.15703 12.2977 4.40547L7.68516 7.74531C7.00078 6.83828 5.91328 6.25 4.6875 6.25C2.61562 6.25 0.9375 7.92812 0.9375 10C0.9375 12.0719 2.61562 13.75 4.6875 13.75C5.91328 13.75 7.00078 13.1617 7.68516 12.2547L12.2977 15.5945C12.225 15.843 12.1875 16.1055 12.1875 16.375C12.1875 17.9266 13.4484 19.1875 15 19.1875C16.5516 19.1875 17.8125 17.9266 17.8125 16.375C17.8125 14.8234 16.5516 13.5625 15 13.5625ZM15 2.40625C15.6727 2.40625 16.2188 2.95234 16.2188 3.625C16.2188 4.29766 15.6727 4.84375 15 4.84375C14.3273 4.84375 13.7812 4.29766 13.7812 3.625C13.7812 2.95234 14.3273 2.40625 15 2.40625ZM4.6875 12.0625C3.55078 12.0625 2.625 11.1367 2.625 10C2.625 8.86328 3.55078 7.9375 4.6875 7.9375C5.82422 7.9375 6.75 8.86328 6.75 10C6.75 11.1367 5.82422 12.0625 4.6875 12.0625ZM15 17.5938C14.3273 17.5938 13.7812 17.0477 13.7812 16.375C13.7812 15.7023 14.3273 15.1562 15 15.1562C15.6727 15.1562 16.2188 15.7023 16.2188 16.375C16.2188 17.0477 15.6727 17.5938 15 17.5938Z" fill="#8C8C8C"/>
</svg>
